<svg xmlns="http://www.w3.org/2000/svg" viewBox="0 0 344.7 193.73"><defs><style>.cls-1{fill:#fe6612;}.cls-2{fill:#ccc;}.cls-3{fill:#fff;}</style></defs><title>Asset 1@512x</title><g id="Layer_2" data-name="Layer 2"><g id="Layer_1-2" data-name="Layer 1"><path class="cls-1" d="M163.63,52.24a8.06,8.06,0,0,1-2.83.51c-3.49,0-11.9.29-14.78-.38-1-.24-1.34-1.93-1.26-2.83.17-3.17.75-8.81.32-12.08-.33-2.53-2.75-5.21-5.52-4.05-7.64,3.2-25.58,21.75-31.42,27.93l2.8-4.31c23.45-37.13,38.52-36.8,44.08-33.9s4.68,14,3.92,19.22l15.65-18.63L190.7,24C184,31.89,177.33,40,170.33,47.58A16.38,16.38,0,0,1,163.63,52.24Z"/><path class="cls-2" d="M114.88,31.87a53.48,53.48,0,0,1,69.73-17.68,1.81,1.81,0,0,0,1.71-3.2,57.1,57.1,0,0,0-74.46,18.87,1.81,1.81,0,0,0,3,2Z"/><path class="cls-3" d="M53.13,189.35H57v-3.88H53.13Zm4.62-11.72h0v-5.39a2.48,2.48,0,0,0-2.48-2.48H36.78v6.1h14.4a1.24,1.24,0,0,1,1.24,1.24v.53H35.73c-.31,0-.6,0-.88,0v-5.39a2.49,2.49,0,0,0-2.48-2.48H22.1v6.1h5.19a1.24,1.24,0,0,1,1.24,1.24v.53H22.1v6.1h4.1l8.66-.06a7.62,7.62,0,0,0,.94.06h28v-23h-6.1Zm6.1-16.93v23h6.1v-23Zm-45.93,9.06H14.08v7.87h-1.7v-5.39a2.49,2.49,0,0,0-2.49-2.48H.56v6.1H5.81a1.24,1.24,0,0,1,1.24,1.24v.53H.56v6.1H20.4V172.24A2.48,2.48,0,0,0,17.92,169.75Zm-1.39,19.6H20.4v-3.88H16.53Zm-5.44,0H15v-3.88H11.09Z"/><path d="M53.13,189.35v.4H57.4v-4.68H52.73v4.68h.4v-.4h.4v-3.48H56.6V189H53.13v.4h0Zm4.62-11.72h.4v-5.39a2.89,2.89,0,0,0-2.88-2.88H36.38v6.9h14.8a.85.85,0,0,1,.84.84v.13H34.87l0,.4h.4v-5.39a2.89,2.89,0,0,0-2.88-2.88H21.7v6.9h5.59a.84.84,0,0,1,.84.84v.13H21.7v6.9h4.5l8.66-.06v-.4l0,.4a7.88,7.88,0,0,0,1,.06H64.24V160.3h-6.9v17.33h.8V161.1h5.3v22.23H35.79a7.36,7.36,0,0,1-.89-.05h0l-8.68.06H22.5V178h6.43v-.93a1.64,1.64,0,0,0-1.64-1.64H22.5v-5.3h9.87a2.09,2.09,0,0,1,2.08,2.08V178l.38,0h18v-.93a1.64,1.64,0,0,0-1.64-1.64h-14v-5.3H55.26a2.09,2.09,0,0,1,2.08,2.08v5.39h.4Zm6.1-16.93h-.4v23.43h6.9V160.3h-6.9v.4h.4v.4h5.7v22.23h-5.3V160.7h-.4v0Zm-45.93,9.06v-.4H13.68v7.87h-.9v-5a2.89,2.89,0,0,0-2.89-2.88H.16v6.9H5.81a.84.84,0,0,1,.84.84v.13H.16v6.9H20.8V172.24a2.88,2.88,0,0,0-2.88-2.88v.8A2.09,2.09,0,0,1,20,172.24v11.08H1V178H7.45v-.93a1.64,1.64,0,0,0-1.64-1.64H1v-5.29H9.89A2.09,2.09,0,0,1,12,172.24V178h2.5v-7.87h3.44Zm-1.39,19.6v.4H20.8v-4.68H16.13v4.68h.4v-.4h.4v-3.48H20V189H16.53v.4h0Zm-5.44,0v.4h4.28v-4.68H10.69v4.68h.4v-.4h.4v-3.48h3.08V189H11.09v.4h0Z"/><path d="M104.53,155.85H0v-80H31.14v48.91H42.83V75.79h3.35l12.9,0H84.68a19.87,19.87,0,0,1,19.85,19.85v60.2Z"/><path d="M143.16,193.73H108.67l6.55-5.84c.15-.14,14.78-13.39,16.41-32H101.21V87.71a11.91,11.91,0,0,1,11.9-11.9H162.9v76.7c0,23.45-18,39.7-18.8,40.38Z"/><polygon points="270.89 64.15 267.55 64.15 249.21 64.15 245.87 64.15 245.87 60.81 245.87 42.47 245.87 39.13 249.21 39.13 267.55 39.13 270.89 39.13 270.89 42.47 270.89 60.81 270.89 64.15"/><polygon points="67.81 64.15 64.47 64.15 46.13 64.15 42.79 64.15 42.79 60.81 42.79 42.47 42.79 39.13 46.13 39.13 64.47 39.13 67.81 39.13 67.81 42.47 67.81 60.81 67.81 64.15"/><polygon points="89.5 64.15 86.16 64.15 67.82 64.15 64.47 64.15 64.47 60.81 64.47 42.47 64.47 39.13 67.82 39.13 86.16 39.13 89.5 39.13 89.5 42.47 89.5 60.81 89.5 64.15"/><path d="M172.77,193.73h-34l5.79-5.72c.15-.15,15-15,15-35.5V75.81h31.13v48.91h11.66V76h83.41V0h31.14V155.85H190.6c-1.43,21.54-16.19,36.27-16.85,36.92Z"/><polygon points="344.7 155.85 341.36 155.85 316.91 155.85 313.56 155.85 313.56 152.51 313.56 3.34 313.56 0 316.91 0 341.36 0 344.7 0 344.7 3.34 344.7 152.51 344.7 155.85"/><polygon points="227.54 64.15 224.19 64.15 205.85 64.15 202.51 64.15 202.51 60.81 202.51 42.47 202.51 39.13 205.85 39.13 224.19 39.13 227.54 39.13 227.54 42.47 227.54 60.81 227.54 64.15"/><polygon points="249.22 64.15 245.87 64.15 227.53 64.15 224.19 64.15 224.19 60.81 224.19 42.47 224.19 39.13 227.53 39.13 245.87 39.13 249.22 39.13 249.22 42.47 249.22 60.81 249.22 64.15"/><path class="cls-3" d="M46.17,79.13v48.92H27.79V79.15H3.34v73.36h97.85V95.66A16.51,16.51,0,0,0,84.68,79.15H59.07m17.67,48.91H70.62V97.49h1.83a4.28,4.28,0,0,1,4.28,4.28Z"/><path class="cls-3" d="M159.57,152.51V79.15H113.1a8.56,8.56,0,0,0-8.56,8.56v64.8h30.57c0,22.21-17.68,37.87-17.68,37.87h24.45S159.57,174.72,159.57,152.51Zm-24.45-24.45H129V101.77a4.28,4.28,0,0,1,4.28-4.28h1.83Z"/><rect class="cls-3" x="249.21" y="42.47" width="18.34" height="18.34"/><rect class="cls-3" x="46.13" y="42.47" width="18.34" height="18.34"/><rect class="cls-3" x="67.82" y="42.47" width="18.34" height="18.34"/><path class="cls-3" d="M233.51,79.3H258v48.76h3.34V79.3h24.45v48.76h3.37V3.34h24.46V152.51H187.37c0,22.21-16,37.87-16,37.87H147s16-15.66,16-37.87V79.15h24.45v48.91h18.34V79.3h24.45v48.76h3.35Z"/><rect class="cls-3" x="316.91" y="3.34" width="24.45" height="149.17"/><rect class="cls-3" x="205.85" y="42.47" width="18.34" height="18.34"/><rect class="cls-3" x="227.53" y="42.47" width="18.34" height="18.34"/></g></g></svg>