<?xml version="1.0" encoding="iso-8859-1"?>
<!-- Generator: Adobe Illustrator 19.0.0, SVG Export Plug-In . SVG Version: 6.00 Build 0)  -->
<svg version="1.1" id="Layer_1" xmlns="http://www.w3.org/2000/svg" xmlns:xlink="http://www.w3.org/1999/xlink" x="0px" y="0px"
	 viewBox="0 0 511.999 511.999" style="enable-background:new 0 0 511.999 511.999;" xml:space="preserve">
<g>
	<g>
		<path d="M413.53,82.816V15.652H0v414.766c0,36.354,29.576,65.93,65.93,65.93h380.139c36.354,0,65.93-29.576,65.93-65.93V82.816
			H413.53z M65.93,462.956c-17.942,0-32.539-14.598-32.539-32.54V49.043h346.748v381.374c0,11.829,3.148,22.931,8.625,32.539H65.93z
			 M478.609,430.416c0,17.942-14.596,32.539-32.539,32.539s-32.539-14.596-32.539-32.539V116.207h65.077V430.416z"/>
	</g>
</g>
<g>
	<g>
		<polygon points="123.541,87.851 123.541,117.235 100.343,87.851 87.971,87.851 87.971,145.641 103.844,145.641 103.844,117.235 
			126.797,145.641 139.412,145.641 139.412,87.851 		"/>
	</g>
</g>
<g>
	<g>
		<polygon points="165.215,131.804 165.215,122.687 186.214,122.687 186.214,109.827 165.215,109.827 165.215,101.689 
			189.795,101.689 189.795,87.851 149.341,87.851 149.341,145.641 190.527,145.641 190.527,131.804 		"/>
	</g>
</g>
<g>
	<g>
		<polygon points="262.804,87.851 250.351,127.49 246.2,115.444 255.723,87.851 241.153,87.851 236.025,105.677 230.98,87.851 
			216.41,87.851 225.771,115.444 221.782,127.49 209.247,87.851 192.072,87.851 214.701,145.641 227.886,145.641 236.025,124.967 
			244.247,145.641 257.432,145.641 280.06,87.851 		"/>
	</g>
</g>
<g>
	<g>
		<path d="M308.141,110.072c-6.674-2.116-10.743-2.767-10.743-5.779c0-2.035,1.871-2.849,4.639-2.849
			c6.919,0,15.302,5.29,15.302,5.29l6.837-13.105c-5.209-2.605-13.268-6.268-21.651-6.268c-11.396,0-21.571,6.755-21.571,19.535
			c0,8.466,4.478,12.78,14.652,16.198c6.919,2.36,12.86,3.093,12.86,6.43c0,1.546-1.221,2.523-4.639,2.523
			c-8.872,0-18.558-6.349-18.558-6.349l-6.837,13.919c6.919,4.069,16.767,6.756,25.151,6.756c10.744,0,21.976-4.477,21.976-18.395
			C325.56,117.153,318.803,113.409,308.141,110.072z"/>
	</g>
</g>
<g>
	<g>
		<path d="M178.945,283.822v144.692h174.216V283.822H178.945z M319.77,395.123H212.336v-77.91H319.77V395.123z"/>
	</g>
</g>
<g>
	<g>
		<rect x="60.372" y="395.118" width="83.38" height="33.391"/>
	</g>
</g>
<g>
	<g>
		<rect x="60.372" y="283.825" width="83.38" height="33.391"/>
	</g>
</g>
<g>
	<g>
		<rect x="60.372" y="172.521" width="292.92" height="33.391"/>
	</g>
</g>
<g>
	<g>
		<rect x="60.372" y="339.477" width="83.38" height="33.391"/>
	</g>
</g>
<g>
	<g>
		<rect x="60.372" y="228.173" width="292.92" height="33.391"/>
	</g>
</g>
<g>
</g>
<g>
</g>
<g>
</g>
<g>
</g>
<g>
</g>
<g>
</g>
<g>
</g>
<g>
</g>
<g>
</g>
<g>
</g>
<g>
</g>
<g>
</g>
<g>
</g>
<g>
</g>
<g>
</g>
</svg>
