<?xml version="1.0" encoding="iso-8859-1"?>
<!-- Generator: Adobe Illustrator 19.0.0, SVG Export Plug-In . SVG Version: 6.00 Build 0)  -->
<svg version="1.1" id="Layer_1" xmlns="http://www.w3.org/2000/svg" xmlns:xlink="http://www.w3.org/1999/xlink" x="0px" y="0px"
	 viewBox="0 0 512.001 512.001" style="enable-background:new 0 0 512.001 512.001;" xml:space="preserve">
<g>
	<g>
		<path d="M373.269,442.587V16.745H0v425.843c0,29.088,23.581,52.669,52.67,52.669h338.67
			C380.029,480.688,373.269,462.417,373.269,442.587z M279.16,87.365c8.382,0,16.441,3.663,21.651,6.268l-6.837,13.105
			c0,0-8.383-5.29-15.302-5.29c-2.767,0-4.639,0.814-4.639,2.849c0,3.012,4.068,3.662,10.743,5.779
			c10.663,3.337,17.419,7.081,17.419,17.907c0,13.919-11.232,18.395-21.976,18.395c-8.385,0-18.233-2.686-25.151-6.756l6.837-13.919
			c0,0,9.687,6.349,18.558,6.349c3.418,0,4.639-0.977,4.639-2.523c0-3.337-5.941-4.069-12.86-6.43
			c-10.174-3.419-14.651-7.733-14.651-16.197C257.591,94.121,267.764,87.365,279.16,87.365z M185.882,87.854l12.535,39.639
			l3.988-12.046l-9.361-27.592h14.57l5.047,17.825l5.128-17.825h14.57l-9.523,27.592l4.152,12.046l12.453-39.639h17.256
			l-22.627,57.79h-13.186l-8.221-20.674l-8.14,20.674h-13.186l-22.627-57.79H185.882z M125.978,87.854h40.452v13.837h-24.58v8.14h21
			v12.86h-21v9.116h25.314v13.837h-41.186V87.854z M64.607,87.854h12.371l23.198,29.383V87.854h15.872v57.79h-12.616l-22.953-28.406
			v28.406H64.607V87.854z M52.194,172.523h280.007v33.391H52.194V172.523z M52.194,223.37h280.007v33.391H52.194V223.37z
			 M52.194,409.303v-33.391h78.523c0,0,0,33.391,0,33.391H52.194z M52.194,358.456v-33.391h78.523c0,0,0,33.391,0,33.391H52.194z
			 M52.194,307.608v-33.391h78.523c0,0,0,33.391,0,33.391H52.194z M332.468,409.303H163.425V274.217h169.043V409.303z"/>
	</g>
</g>
<g>
	<g>
		<path d="M406.66,88.597v353.99c0,29.088,23.581,52.669,52.67,52.669c29.088,0,52.67-23.581,52.67-52.669V88.597H406.66z"/>
	</g>
</g>
<g>
</g>
<g>
</g>
<g>
</g>
<g>
</g>
<g>
</g>
<g>
</g>
<g>
</g>
<g>
</g>
<g>
</g>
<g>
</g>
<g>
</g>
<g>
</g>
<g>
</g>
<g>
</g>
<g>
</g>
</svg>
