<svg xmlns="http://www.w3.org/2000/svg" viewBox="0 0 63.98 63.91">
  <defs/>
  <g id="Layer_2" data-name="Layer 2">
    <g id="Layer_1-2" data-name="Layer 1">
      <path class="cls-1" d="M6.34 32a24.52 24.52 0 0 1 7.56-18.1A24.73 24.73 0 0 1 32 6.28a24.69 24.69 0 0 1 18.08 7.62A24.52 24.52 0 0 1 57.64 32H64a30.76 30.76 0 0 0-9.44-22.65A30.81 30.81 0 0 0 32 0 30.87 30.87 0 0 0 9.41 9.35 30.79 30.79 0 0 0 0 32a30.86 30.86 0 0 0 9.41 22.6A30.87 30.87 0 0 0 32 63.91v-6.27A24.73 24.73 0 0 1 13.9 50a24.64 24.64 0 0 1-7.56-18z"/>
      <path class="cls-1" d="M30.36 32.73l-14.41 8.51 2.37 4.1 16.84-10.25V15.88h-4.8v16.85zM40.6 63.91h4.87l-4.87-4.86v4.86z"/>
      <path class="cls-1" transform="rotate(-45 50.787 53.733)" d="M41.46 50.29h18.66v6.88H41.46z"/>
      <path class="cls-1" d="M60.55 40.92a1.33 1.33 0 0 0-1.82 0l-2.38 2.38 4.87 4.86 2.38-2.37a1.24 1.24 0 0 0 .36-.91 1.27 1.27 0 0 0-.36-.88z"/>
    </g>
  </g>
</svg>
