<?xml version="1.0" ?><svg id="Layer_1" style="enable-background:new 0 0 100 100;" version="1.1" viewBox="0 0 100 100" xml:space="preserve" xmlns="http://www.w3.org/2000/svg" xmlns:xlink="http://www.w3.org/1999/xlink"><style type="text/css">
	.st0{fill:none;}
	.st1{fill:none;stroke:#000000;stroke-width:0;stroke-linecap:round;stroke-linejoin:round;}
</style><title/><g><path class="st0" d="M36.8,83.3c-0.2,0.2-0.4,0.4-0.6,0.6C42.4,86,48,89.5,52.7,93.9c0.2,0.2,0.4,0.4,0.7,0.6   c0.1,0.1,0.2,0.1,0.3,0.1h0c0.1,0,0.1,0,0.2-0.1c0.2-0.1,0.4-0.2,0.5-0.3c1.9-1.1,3.8-2.3,5.7-3.5c0.6-0.4,1.1-0.8,1.6-1.2   c0.4-0.3,0.6-0.8,0.8-1.2c0.1-0.2,0.1-0.4,0.1-0.6c0-0.7-0.3-1.4-0.8-2c-0.8-0.9-1.8-1.6-2.8-2.2c-4.9-2.7-10.5-4.1-16.1-4.1   c-1.1,0-2.1,0.1-3.2,0.2C38.8,80.9,37.8,82.2,36.8,83.3z"/><path class="st0" d="M39.8,31.7c-0.7,3-1.9,5.9-3.5,8.5c-2.7,4.7-7.2,10.3-14,16.9c0.2,1.1,0.6,2.1,0.9,3.1   c1.2,3.3,3.1,6.2,5.5,8.7c1.2,1.2,2.4,2.3,3.7,3.3c0.7,0.5,1.5,1.1,2.4,1.6c1,0.6,2.1,1.2,3.2,1.7c9.9-9.3,18.7-11.7,22.8-12.5   c3.4-0.6,6-1.1,8.3-1.4C56.9,54.5,46.8,44.1,39.8,31.7z"/><path class="st0" d="M40.9,8.6c-0.3,0.6-0.6,1.2-0.9,1.9c-0.9,2.1-1.3,4.4-1.3,6.7c0,1.5,0.2,3.1,0.5,4.6c0.3,1.3,0.5,2.4,0.7,3.1   c0.1,0.4,0.2,0.9,0.2,1.4c0.1,0.1,0.2,0.2,0.2,0.3c7.3,14.9,19.3,27,34,34.6c0.2,0.1,0.3,0.2,0.4,0.3c0.7,0.1,1.3,0.1,2,0.3   c1.8,0.4,3.7,0.7,5.5,0.8c1.1,0,2.3-0.2,3.4-0.6c0.7-0.2,1.4-0.6,2.1-0.9C67.7,48.1,51.6,30,40.9,8.6z"/><path class="st0" d="M26.7,71c-3.4-3.6-5.9-8-7.1-12.8c-0.9,0.5-1.8,1.1-2.7,1.7c-2.6,1.8-4.8,4.1-6.6,6.7c-1.3,2-2.1,4.3-2.3,6.7   c0,0.4-0.1,1-0.1,1.7c0,1.3,0.2,2.5,0.5,3.7c0.4,1.5,1.1,2.9,2.1,4.1c1.2,1.5,2.8,2.6,4.7,3.3c1.9,0.7,3.8,1,5.8,1   c2.1,0,4.2-0.3,6.3-1c2.8-1,5.4-2.6,7.4-4.9c0.9-0.9,1.6-2,2.3-3.1C33.2,76.5,29.7,74,26.7,71z"/><path class="st0" d="M88,43.9c-6.5-11.1-18.5-24.4-28.9-32.1c-2.9-2.3-6.1-4.1-9.5-5.6c-1.3-0.5-2.7-0.8-4.1-0.9   c-0.9,0-1.8,0.2-2.5,0.7c0,0-0.1,0-0.1,0.1c3.7,7.5,8,14.6,13,21.3c0.1,0,0.2-0.1,0.3-0.1l4.7-1.1c0.6-0.2,1.3-0.3,1.9-0.3   c0.3,0,0.6,0,0.9,0.1c0.5,0.1,1,0.3,1.5,0.6c0.4,0.2,0.7,0.5,1.1,0.8c3.3,2.6,6.1,5.8,8.2,9.5c0.3,0.5,0.5,1,0.6,1.6   c0,0.1,0,0.2,0,0.3c0,0.6-0.2,1.1-0.4,1.6c-0.7,1.8-1.5,3.5-2.2,5.3c5.3,4.9,11,9.3,17,13.2c0.1-0.1,0.2-0.1,0.3-0.2   c0.2,0,0.3-0.1,0.5-0.1c0.2,0,0.3,0,0.4,0.1c0.2-0.3,0.4-0.5,0.5-0.8c0.5-1,0.7-2,0.7-3.1c-0.1-1.8-0.5-3.5-1.2-5.2   C90,47.6,89.1,45.7,88,43.9z"/><path class="st0" d="M64.4,29.7c-0.2-0.2-0.5-0.4-0.8-0.6c-0.2-0.1-0.4-0.2-0.6-0.2c-0.1,0-0.2,0-0.3,0c-0.4,0-0.9,0.1-1.3,0.2   l-3.7,0.8c3.8,4.8,7.9,9.4,12.4,13.6l1.8-4.3c0.1-0.2,0.1-0.3,0.2-0.4c0,0,0-0.1,0-0.1l0-0.1c-0.1-0.1-0.1-0.2-0.2-0.3   c-0.3-0.5-0.6-1.1-1-1.6c-0.3,0.1-0.5,0.3-0.8,0.4c-0.5,0.2-1.1,0.4-1.7,0.4c-0.2,0-0.5,0-0.7-0.1c-0.8-0.2-1.6-0.6-2.1-1.3l0,0   c-0.5-0.6-0.8-1.3-1-2.1c0-0.3-0.1-0.6-0.1-0.9c0-1,0.2-2,0.6-2.9C64.9,30.1,64.7,29.9,64.4,29.7z"/><path class="st0" d="M68.3,34.6l0.1,0c0.2,0,0.4-0.1,0.6-0.2c0,0,0.1-0.1,0.2-0.1c-0.5-0.7-1.1-1.3-1.7-1.9c0,0.2-0.1,0.4-0.1,0.6   c0,0.1,0,0.3,0,0.4c0,0.3,0.2,0.6,0.3,0.8C67.9,34.5,68.1,34.6,68.3,34.6z"/><path d="M93.5,48.5c-0.9-2.1-1.9-4.1-3-6c-5.2-8.7-13.4-18.6-21.8-26.4c-3.8-3.6-8-6.8-12.4-9.7c-1.8-1.1-3.7-2.1-5.7-2.9   c-1.6-0.7-3.4-1-5.2-1.1c-1.5,0-2.9,0.4-4.1,1.1c-1,0.7-1.9,1.7-2.5,2.8c-0.5,1-1,1.9-1.4,3c-1,2.5-1.5,5.1-1.5,7.8   c0,1.7,0.2,3.4,0.5,5.1c0.3,1.4,0.6,2.6,0.7,3.2c0.2,0.8,0.3,1.6,0.3,2.5c0,2.7-0.9,6.2-3.5,10.8c-2.5,4.3-6.6,9.5-13,15.8   c-0.3,0-0.5,0-0.7,0.1c-2.6,1.2-5.1,2.8-7.3,4.8c-1.9,1.6-3.5,3.5-4.8,5.6c-1.5,2.4-2.4,5.1-2.7,8c0,0.4-0.1,1.1-0.1,2   c0,1.5,0.2,3,0.6,4.5c1.1,4.3,4.3,7.8,8.5,9.4c2.2,0.8,4.5,1.2,6.8,1.2c2.4,0,4.9-0.4,7.2-1.1c2-0.7,3.8-1.6,5.5-2.9   c6.3,2,12.2,5.4,17,10c0.3,0.3,0.7,0.6,1.1,0.9c0.5,0.4,1.1,0.6,1.8,0.6h0.1c0.4,0,0.9-0.1,1.3-0.3c0.3-0.1,0.6-0.3,0.9-0.4   c2-1.1,4-2.3,5.9-3.7c0.7-0.5,1.4-1,2-1.6c0.7-0.7,1.2-1.5,1.5-2.4c0.1-0.5,0.2-0.9,0.2-1.4c0-1.4-0.5-2.7-1.4-3.8   c-1-1.2-2.3-2.2-3.7-2.9c-5.4-2.9-11.4-4.5-17.5-4.5c-0.5,0-1,0-1.5,0c9-8,16.6-10,20.2-10.7c5.2-1,8.4-1.6,11.3-1.6   c1.2,0,2.4,0.1,3.5,0.3c2,0.4,4,0.7,6,0.8c1.5,0,2.9-0.2,4.3-0.7c1.1-0.4,2.1-0.9,3.1-1.4c1.7-1,3.1-2.4,4.1-4.2   c0.7-1.4,1.1-2.9,1.1-4.5C94.8,52.6,94.3,50.5,93.5,48.5z M27.3,86.2c-2,0.7-4.1,1-6.3,1c-2,0-3.9-0.3-5.8-1   c-1.8-0.7-3.4-1.8-4.7-3.3c-1-1.2-1.7-2.6-2.1-4.1C8.2,77.6,8,76.3,8,75.1c0-0.8,0.1-1.4,0.1-1.7c0.2-2.4,1-4.7,2.3-6.7   c1.7-2.7,3.9-5,6.6-6.7c0.9-0.6,1.8-1.2,2.7-1.7c1.2,4.8,3.6,9.2,7.1,12.8c3,3,6.5,5.5,10.3,7.3c-0.7,1.1-1.5,2.1-2.3,3.1   C32.7,83.6,30.1,85.2,27.3,86.2z M42.8,79.5c5.6,0,11.1,1.4,16.1,4.1c1.1,0.5,2,1.3,2.8,2.2c0.5,0.6,0.7,1.3,0.8,2   c0,0.2,0,0.4-0.1,0.6c-0.2,0.5-0.4,0.9-0.8,1.2c-0.5,0.5-1,0.9-1.6,1.2c-1.8,1.3-3.7,2.4-5.7,3.5c-0.2,0.1-0.3,0.2-0.5,0.3   c-0.1,0-0.1,0.1-0.2,0.1h0c-0.1,0-0.2-0.1-0.3-0.1c-0.2-0.2-0.5-0.4-0.7-0.6C48,89.5,42.4,86,36.2,83.9c0.2-0.2,0.4-0.4,0.6-0.6   c1-1.1,2-2.4,2.8-3.7C40.6,79.5,41.7,79.5,42.8,79.5z M60.9,63.1c-4.1,0.8-12.9,3.2-22.8,12.5c-1.1-0.5-2.2-1.1-3.2-1.7   c-0.9-0.6-1.7-1.1-2.4-1.6c-1.3-1-2.6-2.1-3.7-3.3c-2.4-2.5-4.3-5.5-5.5-8.7c-0.4-1-0.7-2-0.9-3.1c6.8-6.6,11.2-12.2,14-16.9   c1.6-2.6,2.8-5.5,3.5-8.5c7,12.4,17.2,22.8,29.5,30C66.9,62,64.3,62.5,60.9,63.1z M85.7,62c-1.1,0.4-2.2,0.6-3.4,0.6   c-1.9-0.1-3.7-0.4-5.5-0.8c-0.7-0.1-1.4-0.2-2-0.3c-0.1-0.1-0.3-0.2-0.4-0.3c-14.8-7.6-26.7-19.7-34-34.6c-0.1-0.1-0.1-0.2-0.2-0.3   c-0.1-0.5-0.1-0.9-0.2-1.4c-0.2-0.8-0.5-1.8-0.7-3.1c-0.3-1.5-0.5-3-0.5-4.6c0-2.3,0.4-4.6,1.3-6.7c0.3-0.6,0.5-1.2,0.9-1.9   C51.6,30,67.7,48.1,87.7,61.1C87.1,61.5,86.4,61.8,85.7,62z M64.5,33.1c0,0.3,0,0.6,0.1,0.9c0.1,0.8,0.5,1.5,1,2.1l0,0   c0.5,0.7,1.3,1.1,2.1,1.3c0.2,0,0.5,0.1,0.7,0.1c0.6,0,1.2-0.1,1.7-0.4c0.3-0.1,0.5-0.2,0.8-0.4c0.3,0.5,0.7,1,1,1.6   c0.1,0.1,0.1,0.2,0.2,0.3l0,0.1c0,0,0,0.1,0,0.1c0,0.1-0.1,0.2-0.2,0.4l-1.8,4.3c-4.4-4.3-8.6-8.8-12.4-13.6l3.7-0.8   c0.4-0.1,0.8-0.2,1.3-0.2c0.1,0,0.2,0,0.3,0c0.2,0.1,0.4,0.1,0.6,0.2c0.3,0.2,0.5,0.4,0.8,0.6c0.2,0.2,0.5,0.4,0.7,0.6   C64.8,31.2,64.6,32.1,64.5,33.1z M64.6,34L64.6,34L64.6,34z M67.4,33.1c0-0.2,0-0.4,0.1-0.6c0.6,0.6,1.2,1.3,1.7,1.9   c-0.1,0-0.1,0.1-0.2,0.1c-0.2,0.1-0.4,0.1-0.6,0.2l-0.1,0c-0.2,0-0.3-0.2-0.5-0.3c-0.2-0.2-0.3-0.5-0.3-0.8   C67.4,33.4,67.4,33.3,67.4,33.1z M91.3,57.8c-0.2,0.3-0.3,0.6-0.5,0.8c-0.1,0-0.3-0.1-0.4-0.1c-0.2,0-0.3,0-0.5,0.1   c-0.1,0-0.2,0.1-0.3,0.2c-6-3.9-11.7-8.3-17-13.2c0.7-1.8,1.5-3.5,2.2-5.3c0.2-0.5,0.4-1.1,0.4-1.6c0-0.1,0-0.2,0-0.3   c-0.1-0.6-0.3-1.1-0.6-1.6c-2.1-3.6-4.9-6.9-8.2-9.5c-0.3-0.3-0.7-0.5-1.1-0.8c-0.5-0.3-1-0.5-1.5-0.6C63.4,26,63.1,26,62.8,26   c-0.6,0-1.3,0.1-1.9,0.3l-4.7,1.1c-0.1,0-0.2,0.1-0.3,0.1c-5-6.7-9.4-13.8-13-21.3c0,0,0.1,0,0.1-0.1c0.8-0.5,1.6-0.7,2.5-0.7   c1.4,0.1,2.8,0.4,4.1,0.9c3.4,1.4,6.6,3.3,9.5,5.6C69.5,19.6,81.5,32.9,88,43.9c1.1,1.8,2,3.7,2.8,5.6c0.7,1.6,1.1,3.4,1.2,5.2   C92,55.8,91.7,56.9,91.3,57.8z"/><line class="st1" x1="64.6" x2="64.6" y1="34" y2="34"/></g></svg>