<svg height="480pt" viewBox="0 -16 480 480" width="480pt" xmlns="http://www.w3.org/2000/svg"><path d="m208 120.003906c3.902344-.003906 7.234375-2.816406 7.886719-6.664062.652343-3.84375-1.5625-7.601563-5.242188-8.890625l-160-56c-4.171875-1.460938-8.734375.734375-10.195312 4.90625-1.460938 4.167969.734375 8.734375 4.90625 10.195312l160 56c.851562.296875 1.742187.449219 2.644531.453125zm0 0"/><path d="m58.972656 80.570312c-4.101562-1.628906-8.746094.367188-10.382812 4.464844-1.640625 4.09375.34375 8.746094 4.4375 10.394532l40 16c2.65625 1.070312 5.683594.636718 7.933594-1.128907 2.253906-1.769531 3.386718-4.609375 2.976562-7.441406-.410156-2.835937-2.304688-5.234375-4.964844-6.289063zm0 0"/><path d="m95.996094 144.003906c3.835937 0 7.132812-2.722656 7.859375-6.488281.726562-3.769531-1.320313-7.519531-4.882813-8.945313l-40-16c-4.101562-1.628906-8.746094.367188-10.382812 4.464844-1.640625 4.09375.34375 8.746094 4.4375 10.394532l40 16c.945312.375 1.953125.570312 2.96875.574218zm0 0"/><path d="m210.972656 144.570312-80-32c-2.464844-.988281-5.257812-.683593-7.457031.804688s-3.515625 3.96875-3.515625 6.625v104c0 3.269531 1.992188 6.210938 5.027344 7.429688l80 32c2.464844.984374 5.257812.683593 7.457031-.804688s3.515625-3.972656 3.515625-6.625v-104c0-3.273438-1.992188-6.214844-5.027344-7.429688zm-10.972656 99.613282-64-25.601563v-86.765625l64 25.601563zm0 0"/><path d="m210.972656 280.570312-80-32c-4.101562-1.628906-8.746094.367188-10.382812 4.464844-1.640625 4.09375.34375 8.746094 4.4375 10.394532l80 32c2.65625 1.070312 5.683594.636718 7.933594-1.128907 2.253906-1.769531 3.386718-4.609375 2.976562-7.441406-.410156-2.835937-2.304688-5.234375-4.964844-6.289063zm0 0"/><path d="m68.953125 271.398438 136 56c4.085937 1.679687 8.761719-.265626 10.445313-4.351563 1.683593-4.085937-.265626-8.765625-4.351563-10.445313l-136-56c-4.085937-1.683593-8.761719.265626-10.445313 4.351563-1.683593 4.085937.265626 8.761719 4.351563 10.445313zm0 0"/><path d="m207.996094 360.003906c3.820312 0 7.109375-2.699218 7.851562-6.449218.742188-3.75-1.269531-7.5-4.800781-8.953126l-136-56c-4.085937-1.683593-8.761719.265626-10.445313 4.351563-1.683593 4.085937.265626 8.761719 4.351563 10.445313l136 56c.964844.398437 2 .605468 3.042969.605468zm0 0"/><path d="m472 168h-22.332031l30.191406-158.503906c.53125-2.804688-.46875-5.679688-2.625-7.546875-2.160156-1.8632815-5.144531-2.441407-7.84375-1.511719l-157.484375 54.304688-4.9375-24.675782c-1.984375-9.925781-9.269531-17.957031-18.957031-20.890625-9.6875-2.933593-20.207031-.296875-27.363281 6.863281l-4.605469 4.605469c-2.144531 2.152344-5.058594 3.359375-8.097657 3.355469h-15.890624c-3.035157.003906-5.949219-1.199219-8.09375-3.351562l-4.609376-4.609376c-7.15625-7.160156-17.671874-9.796874-27.359374-6.863281-9.6875 2.933594-16.976563 10.960938-18.960938 20.886719l-4.9375 24.679688-157.484375-54.304688c-2.699219-.929688-5.683594-.3515625-7.84375 1.511719-2.15625 1.867187-3.15625 4.742187-2.625 7.546875l30.191406 158.503906h-22.332031c-4.417969 0-8 3.582031-8 8v56c0 4.417969 3.582031 8 8 8h24v88c0 3.269531 1.992188 6.210938 5.027344 7.429688l74.414062 29.765624-7.402344 74.007813c-.222656 2.246094.515626 4.484375 2.03125 6.160156 1.515626 1.675781 3.667969 2.632813 5.929688 2.636719h120c3.03125 0 5.800781-1.710938 7.15625-4.421875l.84375-1.691406.84375 1.691406c1.355469 2.710937 4.125 4.421875 7.15625 4.421875h120c2.261719-.003906 4.414062-.960938 5.929688-2.636719 1.515624-1.675781 2.253906-3.914062 2.03125-6.160156l-7.402344-74.007813 74.414062-29.765624c3.035156-1.21875 5.027344-4.160157 5.027344-7.429688v-88h24c4.417969 0 8-3.582031 8-8v-56c0-4.417969-3.582031-8-8-8zm-283.28125-134.800781c.828125-4.140625 3.867188-7.488281 7.910156-8.710938 4.039063-1.222656 8.425782-.121093 11.410156 2.863281l4.613282 4.613282c5.136718 5.15625 12.121094 8.050781 19.402344 8.035156h15.890624c7.28125.015625 14.269532-2.878906 19.40625-8.039062l4.609376-4.609376c2.984374-2.984374 7.371093-4.085937 11.414062-2.859374 4.039062 1.222656 7.078125 4.570312 7.90625 8.710937l5.363281 26.800781-56.644531 19.53125-56.644531-19.53125zm-172.71875 190.800781v-40h48v40zm32 98.582031v-82.582031h24c4.417969 0 8-3.582031 8-8v-56c0-4.417969-3.582031-8-8-8h-25.378906l-28.179688-147.9375 213.558594 73.640625v302.476563l-109.027344-43.609376-.003906-.003906zm204.945312 109.417969-5.789062-11.578125c-1.355469-2.710937-4.125-4.421875-7.15625-4.421875s-5.800781 1.710938-7.15625 4.421875l-5.789062 11.578125h-106.214844l6.0625-60.621094 110.125 44.050782c.09375.035156.195312.019531.289062.054687 1.722656.6875 3.644532.6875 5.367188 0 .09375-.03125.195312-.019531.289062-.054687l110.125-44.050782 6.0625 60.621094zm179.054688-109.417969-74.96875 29.984375-.003906.003906-109.027344 43.609376v-302.476563l213.558594-73.640625-28.179688 147.9375h-25.378906c-4.417969 0-8 3.582031-8 8v32.140625c.046875-2.683594-1.25-5.207031-3.457031-6.730469-2.207031-1.519531-5.027344-1.835937-7.515625-.839844l-120 48c-2.660156 1.054688-4.554688 3.453126-4.964844 6.289063-.410156 2.832031.722656 5.671875 2.976562 7.441406 2.25 1.765625 5.277344 2.199219 7.933594 1.128907l120-48c2.980469-1.195313 4.960938-4.054688 5.027344-7.265626v23.835938c0 4.417969 3.582031 8 8 8h24zm32-98.582031h-48v-40h48zm0 0"/><path d="m272 120.003906c.902344-.003906 1.792969-.15625 2.644531-.453125l160-56c4.171875-1.460937 6.367188-6.027343 4.90625-10.195312-1.460937-4.171875-6.023437-6.367188-10.195312-4.90625l-160 56c-3.679688 1.289062-5.894531 5.046875-5.242188 8.890625.652344 3.847656 3.984375 6.660156 7.886719 6.664062zm0 0"/><path d="m389.027344 232.570312-120 48c-2.660156 1.054688-4.554688 3.453126-4.964844 6.289063-.410156 2.832031.722656 5.671875 2.976562 7.441406 2.25 1.765625 5.277344 2.199219 7.933594 1.128907l120-48c2.660156-1.058594 4.554688-3.457032 4.964844-6.292969.410156-2.832031-.722656-5.667969-2.976562-7.4375-2.25-1.769531-5.277344-2.199219-7.933594-1.128907zm0 0"/><path d="m389.027344 264.570312-120 48c-2.660156 1.054688-4.554688 3.453126-4.964844 6.289063-.410156 2.832031.722656 5.671875 2.976562 7.441406 2.25 1.765625 5.277344 2.199219 7.933594 1.128907l120-48c2.660156-1.058594 4.554688-3.457032 4.964844-6.292969.410156-2.832031-.722656-5.667969-2.976562-7.4375-2.25-1.769531-5.277344-2.199219-7.933594-1.128907zm0 0"/><path d="m389.027344 296.570312-120 48c-2.660156 1.054688-4.554688 3.453126-4.964844 6.289063-.410156 2.832031.722656 5.671875 2.976562 7.441406 2.25 1.765625 5.277344 2.199219 7.933594 1.128907l120-48c2.660156-1.058594 4.554688-3.457032 4.964844-6.292969.410156-2.832031-.722656-5.667969-2.976562-7.4375-2.25-1.769531-5.277344-2.199219-7.933594-1.128907zm0 0"/><path d="m272 152.003906c.902344-.003906 1.792969-.15625 2.644531-.453125l160-56c4.171875-1.460937 6.367188-6.027343 4.90625-10.195312-1.460937-4.171875-6.023437-6.367188-10.195312-4.90625l-160 56c-3.679688 1.289062-5.894531 5.046875-5.242188 8.890625.652344 3.847656 3.984375 6.660156 7.886719 6.664062zm0 0"/><path d="m267.597656 230.679688c2.246094 1.480468 5.082032 1.730468 7.554688.671874l56-24c2.941406-1.261718 4.847656-4.152343 4.847656-7.351562v-48c0-2.691406-1.351562-5.199219-3.597656-6.679688-2.242188-1.480468-5.082032-1.734374-7.554688-.671874l-56 24c-2.941406 1.257812-4.847656 4.152343-4.847656 7.351562v48c0 2.6875 1.351562 5.199219 3.597656 6.679688zm12.402344-49.40625 40-17.140626v30.59375l-40 17.140626zm0 0"/><path d="m413.191406 128.507812-64 24c-2.695312.988282-4.648437 3.347657-5.128906 6.179688-.476562 2.828125.601562 5.699219 2.820312 7.515625 2.21875 1.820313 5.246094 2.3125 7.925782 1.289063l64-24c2.695312-.992188 4.648437-3.351563 5.128906-6.179688.476562-2.832031-.601562-5.699219-2.820312-7.519531-2.21875-1.820313-5.246094-2.308594-7.925782-1.285157zm0 0"/></svg>