<svg xmlns="http://www.w3.org/2000/svg" viewBox="0 0 480.908 480.908">
  <path d="M456.061 390.901a47.984 47.984 0 0 0-23.239-5.993 47.746 47.746 0 0 0-31.768 12.113L300.107 281.673a71.515 71.515 0 0 0 12.243-32.765h59.942l21.67 36.117a7.994 7.994 0 0 0 6.859 3.883h48a7.994 7.994 0 0 0 6.859-3.883l24-40a7.99 7.99 0 0 0 0-8.234l-24-40a7.994 7.994 0 0 0-6.859-3.883h-48a7.994 7.994 0 0 0-6.859 3.883l-21.67 36.117H312.35a71.561 71.561 0 0 0-11.904-32.312L410.032 91.011a52.366 52.366 0 0 0 24.134 5.921 45.517 45.517 0 0 0 31.797-13.008 48.895 48.895 0 0 0 14.859-35.015C480.816 22.401 459.323.917 432.815.923c-26.396.006-47.834 21.325-47.985 47.721a45.118 45.118 0 0 0 12.332 32.614L289.975 188.443a71.696 71.696 0 0 0-41.153-19.063v-54.042l22.742 12.57a8 8 0 0 0 11.766-8.289l-5.961-36.539 25.18-25.805a7.999 7.999 0 0 0-4.515-13.492l-34.477-5.27L248.064 5.51a8 8 0 0 0-14.484 0l-15.492 33.004-34.477 5.27a7.999 7.999 0 0 0-4.516 13.493l25.18 25.805-5.961 36.539a8 8 0 0 0 11.765 8.289l22.742-12.57v54.048a71.54 71.54 0 0 0-36.302 14.783L90.911 71.951c12.974-23.402 4.52-52.892-18.882-65.866C48.626-6.889 19.137 1.565 6.163 24.967-6.811 48.37 1.642 77.859 25.045 90.833c18.028 9.995 40.407 7.488 55.777-6.248L185.07 195.356a71.647 71.647 0 0 0-15.773 37.553H85.768l-21.79-43.579a8.33 8.33 0 0 0-14.312 0l-48 96a8.001 8.001 0 0 0 7.156 11.578h96a8 8 0 0 0 7.157-11.578l-18.211-36.422h75.527a71.699 71.699 0 0 0 19.063 41.153L81.013 397.405c-19.553-17.529-49.614-15.887-67.143 3.666s-15.887 49.614 3.666 67.143 49.614 15.887 67.143-3.666c13.444-14.997 15.981-36.837 6.332-54.516L200.51 300.533a71.561 71.561 0 0 0 32.312 11.904v72.472h-32a7.998 7.998 0 0 0-8 7.996v80.004a7.998 7.998 0 0 0 7.996 8h80.004a7.998 7.998 0 0 0 8-7.996v-80.004a7.998 7.998 0 0 0-7.996-8h-32.004v-72.472a71.673 71.673 0 0 0 40.652-18.608L390.853 409.67c-12.824 23.189-4.421 52.384 18.768 65.208s52.384 4.421 65.208-18.768c12.824-23.19 4.421-52.385-18.768-65.209zm-50.708-181.993h38.937l19.203 32-19.203 32h-38.938l-19.203-32 19.204-32zm27.469-192c17.665.019 31.981 14.335 32 32a32.817 32.817 0 0 1-9.969 23.504 29.855 29.855 0 0 1-21.75 8.5c-17.549.281-32.004-13.717-32.285-31.267a24.34 24.34 0 0 1-.004-.468c.167-17.65 14.359-31.959 32.008-32.269zm-384 64c-17.673 0-32-14.327-32-32s14.327-32 32-32 32 14.327 32 32c-.019 17.666-14.335 31.981-32 32zm-27.055 200l35.055-70.113 35.055 70.113h-70.11zm27.055 184c-17.673 0-32-14.327-32-32 0-17.673 14.327-32 32-32s32 14.327 32 32c-.019 17.666-14.335 31.981-32 32zM216.76 105.936l3.961-24.262a8.009 8.009 0 0 0-2.172-6.875l-17.125-17.555 23.305-3.563a8 8 0 0 0 6.031-4.508l10.063-21.438 10.063 21.437a8.002 8.002 0 0 0 6.031 4.508l23.305 3.563-17.125 17.555a8.009 8.009 0 0 0-2.172 6.875l3.961 24.262-20.195-11.16a7.979 7.979 0 0 0-7.734 0l-20.197 11.161zm56.062 294.972v64h-64v-64h64zm-32-104c-30.928 0-56-25.072-56-56s25.072-56 56-56 56 25.072 56 56c-.036 30.913-25.087 55.964-56 56zm192 168c-17.673 0-32-14.327-32-32 0-17.673 14.327-32 32-32 17.673 0 32 14.327 32 32-.019 17.666-14.334 31.981-32 32z"/>
</svg>
