<svg xmlns="http://www.w3.org/2000/svg" width="24.113" height="24.132" viewBox="0 0 24.113 24.132"><defs><style>.a{fill:#fff;}</style></defs><g transform="translate(-331 -865.735)"><g transform="translate(330.806 865.735)"><g transform="translate(0.194)"><path class="a" d="M23.265,5.192l-.585-.183a1.853,1.853,0,0,0-.475-.073A1.572,1.572,0,0,0,20.742,6l-.329.987V6.216a.451.451,0,0,0-.146-.293l-6-5.813A.4.4,0,0,0,14.015,0H2.278a.345.345,0,0,0-.366.366V1.5H.56a.345.345,0,0,0-.366.366v21.9a.345.345,0,0,0,.366.366h17.77a.345.345,0,0,0,.366-.366V22.632h1.353a.345.345,0,0,0,.366-.366V17.331l1.024-1.389.037-.11,2.742-8.739A1.458,1.458,0,0,0,23.265,5.192ZM14.38,1.243,19.17,5.85H14.38ZM17.964,23.4H.925V2.23h.987V22.267a.345.345,0,0,0,.366.366H17.964V23.4Zm1.755-1.5H2.644V.731H13.649V6.216a.345.345,0,0,0,.366.366h5.7V9.324L18,14.735v.11l.073,4.644a.351.351,0,0,0,.256.329.347.347,0,0,0,.4-.146l.987-1.316V21.9Zm-.951-3.547-.073-3.035,1.828.585Zm4.79-11.481-2.633,8.373L18.8,14.552l2.633-8.336a.8.8,0,0,1,.987-.512l.585.183A.773.773,0,0,1,23.558,6.874Z" transform="translate(-0.194 0)"/><path class="a" d="M94.677,48.132h5.265a.345.345,0,0,0,.366-.366V44.037a.345.345,0,0,0-.366-.366H94.677a.345.345,0,0,0-.366.366v3.729A.393.393,0,0,0,94.677,48.132Zm.366-3.729h4.534v3H95.042Z" transform="translate(-89.741 -41.55)"/><path class="a" d="M79.619,191.979H90.734a.366.366,0,0,0,0-.731H79.619a.366.366,0,1,0,0,.731Z" transform="translate(-75.414 -181.961)"/><path class="a" d="M79.619,246.944H90.734a.366.366,0,0,0,0-.731H79.619a.366.366,0,1,0,0,.731Z" transform="translate(-75.414 -234.257)"/><path class="a" d="M79.619,301.908H90.734a.366.366,0,0,0,0-.731H79.619a.366.366,0,1,0,0,.731Z" transform="translate(-75.414 -286.552)"/><path class="a" d="M91.063,356.508a.345.345,0,0,0-.366-.366H79.619a.366.366,0,1,0,0,.731H90.734A.361.361,0,0,0,91.063,356.508Z" transform="translate(-75.414 -338.848)"/><path class="a" d="M231.963,411.106h-5.521a.366.366,0,0,0,0,.731h5.484a.345.345,0,0,0,.366-.366A.338.338,0,0,0,231.963,411.106Z" transform="translate(-215.107 -391.143)"/></g></g></g></svg>