<svg xmlns="http://www.w3.org/2000/svg" width="25.714" height="24" viewBox="0 0 25.714 24"><defs><style>.a{fill:#fff;}</style></defs><g transform="translate(-0.001 -0.001)"><path class="a" d="M49,51.855a.429.429,0,0,0,.142-.833l-8.571-3a.429.429,0,0,0-.283.809l8.571,3A.435.435,0,0,0,49,51.855Zm0,0" transform="translate(-37.853 -45.425)"/><path class="a" d="M48.6,80.033a.429.429,0,0,0-.319.8l2.143.857a.429.429,0,1,0,.318-.8Zm0,0" transform="translate(-45.441 -75.716)"/><path class="a" d="M50.585,113.717a.429.429,0,0,0,.159-.827l-2.143-.857a.429.429,0,0,0-.319.8l2.143.857A.436.436,0,0,0,50.585,113.717Zm0,0" transform="translate(-45.441 -106.002)"/><path class="a" d="M124.874,113.742l-4.286-1.714a.429.429,0,0,0-.588.4V118a.429.429,0,0,0,.269.4l4.286,1.714a.429.429,0,0,0,.588-.4V114.14A.429.429,0,0,0,124.874,113.742Zm-.588,5.336-3.429-1.372v-4.648l3.429,1.372Zm0,0" transform="translate(-113.571 -105.997)"/><path class="a" d="M124.887,249.747l-4.286-1.714a.429.429,0,0,0-.318.8l4.286,1.714a.429.429,0,1,0,.319-.8Zm0,0" transform="translate(-113.584 -234.716)"/><path class="a" d="M64.262,256.821l7.286,3a.429.429,0,0,0,.326-.793l-7.286-3a.429.429,0,0,0-.326.793Zm0,0" transform="translate(-60.567 -242.281)"/><path class="a" d="M71.711,291.854a.429.429,0,0,0,.163-.825l-7.286-3a.429.429,0,0,0-.326.793l7.286,3A.428.428,0,0,0,71.711,291.854Zm0,0" transform="translate(-60.567 -272.567)"/><path class="a" d="M25.287,9h-1.2L25.708.509a.429.429,0,0,0-.561-.485L16.71,2.933l-.265-1.322A1.47,1.47,0,0,0,13.964.86l-.247.247a.611.611,0,0,1-.434.18h-.851A.611.611,0,0,1,12,1.107L11.752.86a1.47,1.47,0,0,0-2.481.751L9.006,2.933.569.024A.429.429,0,0,0,.008.509L1.626,9H.429A.429.429,0,0,0,0,9.429v3a.429.429,0,0,0,.429.429H1.715v4.714a.429.429,0,0,0,.269.4l3.986,1.595-.4,3.965A.429.429,0,0,0,6,24h6.429a.429.429,0,0,0,.383-.237l.045-.091.045.091a.429.429,0,0,0,.383.237h6.429a.429.429,0,0,0,.426-.471l-.4-3.965,3.986-1.595a.429.429,0,0,0,.269-.4V12.858h1.286a.429.429,0,0,0,.429-.429v-3A.429.429,0,0,0,25.287,9ZM10.111,1.779a.613.613,0,0,1,1.035-.313l.247.247a1.463,1.463,0,0,0,1.039.43h.851a1.463,1.463,0,0,0,1.04-.431l.247-.247a.613.613,0,0,1,1.035.313l.287,1.436L12.858,4.261,9.823,3.215ZM.858,12V9.858H3.429V12Zm1.714,5.281V12.858H3.858a.429.429,0,0,0,.429-.429v-3A.429.429,0,0,0,3.858,9H2.5L.989,1.075,12.429,5.02v16.2L6.589,18.888h0Zm10.979,5.862-.31-.62a.429.429,0,0,0-.767,0l-.31.62H6.474L6.8,19.9l5.9,2.36.015,0a.388.388,0,0,0,.288,0l.015,0,5.9-2.36.325,3.248Zm9.592-5.862-4.016,1.606h0l-5.841,2.336V5.02L24.727,1.075,23.218,9h-1.36a.429.429,0,0,0-.429.429v1.722a.429.429,0,0,0-.588-.406l-6.429,2.571a.429.429,0,1,0,.318.8l6.429-2.571a.429.429,0,0,0,.269-.389v1.277a.429.429,0,0,0,.429.429h1.286ZM24.858,12H22.287V9.858h2.571Zm0,0" transform="translate(0 0)"/><path class="a" d="M264.428,51.855a.435.435,0,0,0,.142-.024l8.571-3a.429.429,0,1,0-.283-.809l-8.571,3a.429.429,0,0,0,.142.833Zm0,0" transform="translate(-249.856 -45.425)"/><path class="a" d="M270.678,232.021l-6.429,2.571a.429.429,0,1,0,.319.8L271,232.817a.429.429,0,1,0-.319-.8Zm0,0" transform="translate(-249.837 -219.561)"/><path class="a" d="M270.678,264.021l-6.429,2.571a.429.429,0,1,0,.319.8L271,264.817a.429.429,0,1,0-.319-.8Zm0,0" transform="translate(-249.837 -249.847)"/><path class="a" d="M270.678,296.021l-6.429,2.571a.429.429,0,1,0,.319.8L271,296.817a.429.429,0,1,0-.319-.8Zm0,0" transform="translate(-249.837 -280.132)"/><path class="a" d="M264.428,83.855a.435.435,0,0,0,.142-.024l8.571-3a.429.429,0,1,0-.283-.809l-8.571,3a.429.429,0,0,0,.142.833Zm0,0" transform="translate(-249.856 -75.711)"/><path class="a" d="M264.193,148.643a.429.429,0,0,0,.4.036l3-1.286a.428.428,0,0,0,.26-.394v-2.571a.429.429,0,0,0-.6-.394l-3,1.286a.428.428,0,0,0-.26.394v2.571A.429.429,0,0,0,264.193,148.643Zm.664-2.647,2.143-.918v1.639l-2.143.918Zm0,0" transform="translate(-249.857 -136.285)"/><path class="a" d="M347.66,128.009l-3.429,1.286a.429.429,0,1,0,.3.8l3.429-1.286a.429.429,0,1,0-.3-.8Zm0,0" transform="translate(-325.524 -121.124)"/></g></svg>