<svg xmlns="http://www.w3.org/2000/svg" width="25" height="25.008" viewBox="0 0 25 25.008"><defs><style>.a{fill:#fff;}</style></defs><path class="a" d="M23.79,20.328a2.488,2.488,0,0,0-2.86.318l-5.249-6a3.719,3.719,0,0,0,.637-1.7h3.117l1.127,1.878a.416.416,0,0,0,.357.2h2.5a.416.416,0,0,0,.357-.2l1.248-2.08a.416.416,0,0,0,0-.428l-1.248-2.08a.416.416,0,0,0-.357-.2h-2.5a.416.416,0,0,0-.357.2l-1.127,1.878H16.317a3.721,3.721,0,0,0-.619-1.68l5.7-5.7a2.723,2.723,0,0,0,1.171.306h.085A2.367,2.367,0,0,0,24.3,4.364a2.543,2.543,0,0,0,.773-1.821,2.5,2.5,0,0,0-4.992-.014,2.346,2.346,0,0,0,.641,1.7L15.153,9.8a3.728,3.728,0,0,0-2.14-.991V6l1.183.654a.416.416,0,0,0,.612-.431l-.31-1.9,1.309-1.342a.416.416,0,0,0-.235-.7L13.779,2,12.974.287a.416.416,0,0,0-.753,0L11.415,2l-1.793.274a.416.416,0,0,0-.235.7L10.7,4.32l-.31,1.9A.416.416,0,0,0,11,6.652L12.181,6V8.809a3.72,3.72,0,0,0-1.888.769L4.8,3.742a2.52,2.52,0,1,0-.525.657L9.7,10.159a3.726,3.726,0,0,0-.82,1.953H4.534L3.4,9.846a.433.433,0,0,0-.744,0L.16,14.838a.416.416,0,0,0,.372.6H5.525a.416.416,0,0,0,.372-.6L4.95,12.944H8.877a3.728,3.728,0,0,0,.991,2.14L4.287,20.666a2.473,2.473,0,1,0,.52.657L10.5,15.628a3.721,3.721,0,0,0,1.68.619v3.769H10.517a.416.416,0,0,0-.416.416h0v4.16a.416.416,0,0,0,.416.416h4.16a.416.416,0,0,0,.416-.416h0v-4.16a.416.416,0,0,0-.416-.416H13.013V16.247a3.727,3.727,0,0,0,2.114-.968L20.4,21.3a2.5,2.5,0,1,0,3.391-.976Zm-2.637-9.464h2.025l1,1.664-1,1.664H21.153l-1-1.664ZM22.581.879a1.666,1.666,0,0,1,1.664,1.664,1.707,1.707,0,0,1-.518,1.222,1.553,1.553,0,0,1-1.131.442,1.653,1.653,0,0,1-1.679-1.626c0-.008,0-.016,0-.024A1.694,1.694,0,0,1,22.581.879ZM2.613,4.207A1.664,1.664,0,1,1,4.277,2.543,1.664,1.664,0,0,1,2.613,4.207Zm-1.407,10.4,1.823-3.646,1.823,3.646Zm1.407,9.568a1.664,1.664,0,1,1,1.664-1.664A1.664,1.664,0,0,1,2.613,24.176ZM11.346,5.509l.206-1.262a.416.416,0,0,0-.113-.358l-.891-.913,1.212-.185a.416.416,0,0,0,.314-.234L12.6,1.442l.523,1.115a.416.416,0,0,0,.314.234l1.212.185-.891.913a.416.416,0,0,0-.113.358l.206,1.262-1.05-.58a.415.415,0,0,0-.4,0Zm2.915,15.339v3.328H10.933V20.848ZM12.6,15.44a2.912,2.912,0,1,1,2.912-2.912A2.912,2.912,0,0,1,12.6,15.44Zm9.984,8.736a1.664,1.664,0,1,1,1.664-1.664A1.664,1.664,0,0,1,22.581,24.176Z" transform="translate(-0.078 0)"/></svg>