<svg xmlns="http://www.w3.org/2000/svg" width="23.418" height="24" viewBox="0 0 23.418 24"><defs><style>.a{fill:#fff;}</style></defs><path class="a" d="M28.275,14.022a13.929,13.929,0,0,0-.781-1.513,32.767,32.767,0,0,0-5.679-6.655,23.321,23.321,0,0,0-3.23-2.445A10.065,10.065,0,0,0,17.1,2.677,4.046,4.046,0,0,0,15.745,2.4a2.166,2.166,0,0,0-1.068.277,2.148,2.148,0,0,0-.651.706,6.834,6.834,0,0,0-.365.756,5.1,5.1,0,0,0-.391,1.966,7.175,7.175,0,0,0,.13,1.286c.078.353.156.655.182.807a2.462,2.462,0,0,1,.078.63,5.533,5.533,0,0,1-.912,2.723,20,20,0,0,1-3.386,3.983.4.4,0,0,0-.182.025,7.532,7.532,0,0,0-1.9,1.21,5.948,5.948,0,0,0-1.25,1.412,4.58,4.58,0,0,0-.7,2.017c0,.1-.026.277-.026.5a4.254,4.254,0,0,0,.156,1.134,3.521,3.521,0,0,0,2.214,2.37,5.335,5.335,0,0,0,1.771.3,6.75,6.75,0,0,0,1.875-.277A5.1,5.1,0,0,0,12.75,23.5a11.487,11.487,0,0,1,4.428,2.521,2.751,2.751,0,0,0,.287.227.743.743,0,0,0,.469.151h.026a.824.824,0,0,0,.339-.076c.078-.025.156-.076.234-.1a13.8,13.8,0,0,0,1.537-.933,4.04,4.04,0,0,0,.521-.4,1.526,1.526,0,0,0,.391-.605,1.651,1.651,0,0,0,.052-.353,1.47,1.47,0,0,0-.365-.958,3.016,3.016,0,0,0-.964-.731,9.9,9.9,0,0,0-4.558-1.134h-.391a11.093,11.093,0,0,1,5.262-2.7,17.064,17.064,0,0,1,2.943-.4,5.332,5.332,0,0,1,.912.076,11.05,11.05,0,0,0,1.563.2,3.358,3.358,0,0,0,1.12-.176,7.726,7.726,0,0,0,.808-.353,2.827,2.827,0,0,0,1.068-1.059,2.448,2.448,0,0,0,.287-1.134A8.543,8.543,0,0,0,28.275,14.022Zm-17.244,9.5a5.073,5.073,0,0,1-1.641.252,4.418,4.418,0,0,1-1.511-.252,3.088,3.088,0,0,1-1.224-.832,2.66,2.66,0,0,1-.547-1.034,5.681,5.681,0,0,1-.1-.933c0-.2.026-.353.026-.429a3.582,3.582,0,0,1,.6-1.689,5.411,5.411,0,0,1,1.719-1.689c.234-.151.469-.3.7-.429A7.005,7.005,0,0,0,10.9,19.719a9.674,9.674,0,0,0,2.683,1.84,8.983,8.983,0,0,1-.6.782A5.309,5.309,0,0,1,11.031,23.526Zm4.038-1.689a9.037,9.037,0,0,1,4.194,1.034,2.218,2.218,0,0,1,.729.555.956.956,0,0,1,.208.5.311.311,0,0,1-.026.151.642.642,0,0,1-.208.3,1.586,1.586,0,0,1-.417.3,14.226,14.226,0,0,1-1.485.882c-.052.025-.078.05-.13.076-.026,0-.026.025-.052.025h0c-.026,0-.052-.025-.078-.025-.052-.05-.13-.1-.182-.151a11.383,11.383,0,0,0-4.272-2.546l.156-.151a6.5,6.5,0,0,0,.729-.933C14.5,21.837,14.782,21.837,15.068,21.837ZM19.783,17.7a12.106,12.106,0,0,0-5.939,3.151,8.536,8.536,0,0,1-.834-.429c-.234-.151-.443-.277-.625-.4a7.5,7.5,0,0,1-.964-.832A6.453,6.453,0,0,1,9.989,17a3.894,3.894,0,0,1-.234-.782A21.507,21.507,0,0,0,13.4,11.955a7.131,7.131,0,0,0,.912-2.143A20.722,20.722,0,0,0,22,17.375C21.346,17.425,20.669,17.551,19.783,17.7Zm6.46-.277a2.612,2.612,0,0,1-.886.151,8.9,8.9,0,0,1-1.433-.2c-.182-.025-.365-.05-.521-.076-.026-.025-.078-.05-.1-.076A19.707,19.707,0,0,1,14.443,8.5c-.026-.025-.026-.05-.052-.076-.026-.126-.026-.227-.052-.353a7.4,7.4,0,0,1-.182-.782,5.655,5.655,0,0,1-.13-1.16,4.171,4.171,0,0,1,.339-1.689c.078-.151.13-.3.234-.479A33.9,33.9,0,0,0,26.764,17.2,1.911,1.911,0,0,1,26.243,17.425Zm-5.522-7.286a.677.677,0,0,0,.026.227,1.024,1.024,0,0,0,.26.529h0a.942.942,0,0,0,.547.328c.052,0,.13.025.182.025a.879.879,0,0,0,.443-.1.791.791,0,0,0,.208-.1c.078.126.182.252.26.4.026.025.026.05.052.076v.05c0,.025-.026.05-.052.1l-.469,1.084a36.981,36.981,0,0,1-3.23-3.429l.964-.2a1.36,1.36,0,0,1,.339-.05h.078c.052.025.1.025.156.05.078.05.13.1.208.151.052.05.13.1.182.151A3.1,3.1,0,0,0,20.721,10.139Zm.026.227Zm.729-.227a.311.311,0,0,1,.026-.151c.156.151.313.328.443.479-.026,0-.026.025-.052.025-.052.025-.1.025-.156.05h-.026c-.052,0-.078-.05-.13-.076a.281.281,0,0,1-.078-.2A.221.221,0,0,1,21.476,10.139ZM27.7,16.366a1.4,1.4,0,0,1-.13.2c-.026,0-.078-.025-.1-.025a.241.241,0,0,0-.13.025c-.026,0-.052.025-.078.05a32.937,32.937,0,0,1-4.428-3.328c.182-.454.391-.882.573-1.336a1.156,1.156,0,0,0,.1-.4v-.076a1.092,1.092,0,0,0-.156-.4,8.634,8.634,0,0,0-2.136-2.395,2.727,2.727,0,0,0-.287-.2,1.252,1.252,0,0,0-.391-.151,1.009,1.009,0,0,1-.26.025,1.686,1.686,0,0,0-.495.076L18.559,8.7c-.026,0-.052.025-.078.025a32.367,32.367,0,0,1-3.386-5.37.025.025,0,0,0,.026-.025,1.205,1.205,0,0,1,.651-.176,3.838,3.838,0,0,1,1.068.227,10.391,10.391,0,0,1,2.475,1.412,31.217,31.217,0,0,1,7.528,8.067,10.406,10.406,0,0,1,.729,1.412,3.728,3.728,0,0,1,.313,1.311A1.921,1.921,0,0,1,27.7,16.366Z" transform="translate(-5.3 -2.4)"/></svg>