<svg xmlns="http://www.w3.org/2000/svg" width="24" height="24" viewBox="0 0 24 24"><defs><style>.a{fill:#fff;}</style></defs><g transform="translate(0 0.4)"><path class="a" d="M23.6,8h-6a.4.4,0,0,0-.283.683L19.036,10.4l-.851.851A10.277,10.277,0,0,0,12,9.2,10.385,10.385,0,0,0,2.01,22.471L.139,24.1a.4.4,0,0,0-.045.558l2,2.4a.4.4,0,0,0,.278.143H2.4a.4.4,0,0,0,.266-.1l1.182-1.051A10.391,10.391,0,0,0,20.681,13.886l.92-.92,1.717,1.717A.4.4,0,0,0,24,14.4v-6A.4.4,0,0,0,23.6,8ZM12,10a9.667,9.667,0,0,1,2,.215V11a.2.2,0,0,1-.2.2H12.2a1,1,0,0,0-1,1V13a.2.2,0,0,1-.2.2H9.4a.2.2,0,0,1-.2-.2,1,1,0,0,0-1-1H7.8a1,1,0,0,0-1,1v1.2a.2.2,0,0,1-.2.2H3.938A9.6,9.6,0,0,1,12,10ZM2.819,16.8H5.4a.2.2,0,0,1,.2.2v.4a.2.2,0,0,1-.2.2H5a1,1,0,0,0-1,1,.2.2,0,0,1-.2.2H2.437A9.539,9.539,0,0,1,2.819,16.8ZM3.8,19.6a1,1,0,0,0,1-1,.2.2,0,0,1,.2-.2h.4a1,1,0,0,0,1-1V17a1,1,0,0,0-1-1H3.1q.166-.41.369-.8H6.6a1,1,0,0,0,1-1V13a.2.2,0,0,1,.2-.2h.4a.2.2,0,0,1,.2.2,1,1,0,0,0,1,1H11a1,1,0,0,0,1-1v-.8a.2.2,0,0,1,.2-.2h1.6a1,1,0,0,0,1-1v-.579a9.5,9.5,0,0,1,2.811,1.4L11.6,17.834,9.884,16.117a.4.4,0,0,0-.545-.019L2.68,21.888A9.613,9.613,0,0,1,2.4,19.6ZM7.26,27.938a9.62,9.62,0,0,1-2.812-2.423L7.054,23.2H9.2a.4.4,0,0,1,.4.4,1.206,1.206,0,0,0,1.2,1.2.392.392,0,0,1,.285.122.385.385,0,0,1,.115.278V26a.4.4,0,0,1-.4.4H9.2A2,2,0,0,0,7.26,27.938ZM12.042,29.2A2,2,0,0,1,14,27.6h1.2a1.2,1.2,0,0,0,0-2.4h-1a.2.2,0,1,1,0-.4h5.863A9.6,9.6,0,0,1,12.042,29.2ZM20.529,24H14.2a1,1,0,1,0,0,2h1a.4.4,0,1,1,0,.8H14a2.8,2.8,0,0,0-2.763,2.366,9.593,9.593,0,0,1-3.229-.844A1.2,1.2,0,0,1,9.2,27.2h1.6A1.2,1.2,0,0,0,12,26v-.8A1.206,1.206,0,0,0,10.8,24a.392.392,0,0,1-.285-.122A.385.385,0,0,1,10.4,23.6a1.2,1.2,0,0,0-1.2-1.2H7.954l1.632-1.45,1.733,1.733a.4.4,0,0,0,.565,0h0L16.567,18H18.2a.6.6,0,1,1,0,1.2H16.8a1.2,1.2,0,0,0,0,2.4H21.39A9.525,9.525,0,0,1,20.529,24Zm.569-7.472a9.533,9.533,0,0,1,.426,4.272H16.8a.4.4,0,0,1-.4-.4.391.391,0,0,1,.122-.285A.384.384,0,0,1,16.8,20h1.4a1.4,1.4,0,1,0,0-2.8h-.834l.8-.8h2.882C21.064,16.443,21.083,16.485,21.1,16.528Zm-.376-.928H18.967L20.1,14.463A9.61,9.61,0,0,1,20.722,15.6Zm2.48-2.166-1.317-1.317a.4.4,0,0,0-.565,0h0L11.6,21.834,9.884,20.117a.4.4,0,0,0-.548-.016L2.444,26.227.96,24.445l8.623-7.5,1.736,1.736a.4.4,0,0,0,.565,0h0l8-8a.4.4,0,0,0,0-.565h0L18.567,8.8H23.2Z" transform="translate(-0.001 -8)"/></g><g transform="translate(21.2 22)"><rect class="a" width="0.8" height="0.8"/></g><g transform="translate(23.2 23.2)"><rect class="a" width="0.8" height="0.8"/></g><g transform="translate(22.4 20)"><rect class="a" width="0.8" height="0.8"/></g><g transform="translate(19.2 23.2)"><rect class="a" width="0.8" height="0.8"/></g><g transform="translate(23.2 17.6)"><rect class="a" width="0.8" height="0.8"/></g><rect class="a" width="0.8" height="0.8"/><g transform="translate(2 0.8)"><rect class="a" width="0.8" height="0.8"/></g><g transform="translate(0.4 2.4)"><rect class="a" width="0.8" height="0.8"/></g><g transform="translate(4.4)"><rect class="a" width="0.8" height="0.8"/></g><g transform="translate(2 3.2)"><rect class="a" width="0.8" height="0.8"/></g><g transform="translate(0 4.8)"><rect class="a" width="0.8" height="0.8"/></g></svg>