<svg xmlns="http://www.w3.org/2000/svg" width="24.26" height="24.26" viewBox="0 0 24.26 24.26"><defs><style>.a{fill:#fff;}</style></defs><path class="a" d="M22.918,6.578a12.238,12.238,0,0,0-3.582-4.207.494.494,0,1,0-.587.794A11.246,11.246,0,0,1,22.04,7.031a11.02,11.02,0,0,1,1.233,5.1A11.143,11.143,0,1,1,12.13.987a.494.494,0,1,0,0-.987A12.123,12.123,0,1,0,22.918,6.578Z"/><path class="a" d="M106.914,78.249a.494.494,0,0,0-.25.429V89.513a.494.494,0,1,0,.987,0V79.547l7.309,4.351-5.375,3.463a.494.494,0,1,0,.535.83l6.045-3.895a.494.494,0,0,0-.015-.839l-8.74-5.2A.494.494,0,0,0,106.914,78.249Z" transform="translate(-97.887 -71.752)"/></svg>